<svg width="16" height="20" viewBox="0 0 16 20" fill="none" xmlns="http://www.w3.org/2000/svg">
<path d="M10 -0.000348839C10.26 -0.0103488 10.52 0.0996902 10.71 0.28969L15.71 5.28969C15.8899 5.46969 16 5.72967 16 5.99965V16.9997C16 18.6496 14.65 19.9997 13 19.9997V20.0006H3C1.34002 20.0006 2.51446e-05 18.6506 0 17.0006V3.00063C0 1.34063 1.34 0.000627724 3 0.000627724H10V-0.000348839ZM3 2.00063C2.44 2.00063 2 2.44063 2 3.00063V17.0006C2.00002 17.5506 2.44002 18.0006 3 18.0006H13C13.55 18.0006 14 17.5506 14 17.0006V7.00063H11C9.89007 7.00063 9.00011 6.10053 9 5.00063V2.00063H3ZM8 8.00063C8.55 8.00063 9 8.44063 9 9.00063V12.5836L10.2891 11.2897C10.679 10.8898 11.309 10.8899 11.709 11.2887C12.099 11.6787 12.099 12.3086 11.709 12.7086L8.70898 15.7086C8.67062 15.745 8.62845 15.777 8.58496 15.8073C8.44583 15.9086 8.28121 15.9764 8.10156 15.9948L8 16.0006L7.89941 15.9957C7.86519 15.9923 7.8313 15.987 7.79785 15.9801C7.75038 15.9705 7.70479 15.9561 7.66016 15.9401C7.51995 15.8903 7.39177 15.8123 7.29004 15.7106L4.29004 12.7106C3.89033 12.3106 3.89024 11.6806 4.28906 11.2907C4.67898 10.8907 5.30897 10.8909 5.70898 11.2897L7 12.5856V9.00063C7 8.44063 7.44 8.00063 8 8.00063ZM11 5.00063H12.5898L11 3.41078V5.00063Z" fill="#F8F8F8"/>
</svg>
