<svg width="28" height="28" viewBox="0 0 28 28" fill="none" xmlns="http://www.w3.org/2000/svg">
<path d="M24.3013 9.3447L16.6596 3.23136C15.1663 2.04136 12.833 2.0297 11.3513 3.2197L3.70963 9.3447C2.61296 10.2197 1.94796 11.9697 2.1813 13.3464L3.6513 22.143C3.98963 24.1147 5.8213 25.6664 7.8163 25.6664H20.183C22.1546 25.6664 24.0213 24.0797 24.3596 22.1314L25.8296 13.3347C26.0396 11.9697 25.3746 10.2197 24.3013 9.3447ZM14.8746 20.9997C14.8746 21.478 14.478 21.8747 13.9996 21.8747C13.5213 21.8747 13.1246 21.478 13.1246 20.9997V17.4997C13.1246 17.0214 13.5213 16.6247 13.9996 16.6247C14.478 16.6247 14.8746 17.0214 14.8746 17.4997V20.9997Z" fill="#0046EA"/>
</svg>
